<?xml version="1.0" encoding="UTF-8" standalone="no"?>
<!-- Created with Inkscape (http://www.inkscape.org/) -->

<svg
   width="210mm"
   height="297mm"
   viewBox="0 0 210 297"
   version="1.1"
   id="svg5"
   inkscape:version="1.1.2 (0a00cf5339, 2022-02-04)"
   sodipodi:docname="td-remote-displaytv-difference.svg"
   xmlns:inkscape="http://www.inkscape.org/namespaces/inkscape"
   xmlns:sodipodi="http://sodipodi.sourceforge.net/DTD/sodipodi-0.dtd"
   xmlns="http://www.w3.org/2000/svg"
   xmlns:svg="http://www.w3.org/2000/svg">
  <sodipodi:namedview
     id="namedview7"
     pagecolor="#ffffff"
     bordercolor="#666666"
     borderopacity="1.0"
     inkscape:pageshadow="2"
     inkscape:pageopacity="0.0"
     inkscape:pagecheckerboard="0"
     inkscape:document-units="mm"
     showgrid="false"
     inkscape:zoom="8.5267078"
     inkscape:cx="57.994247"
     inkscape:cy="33.013914"
     inkscape:window-width="1920"
     inkscape:window-height="1017"
     inkscape:window-x="0"
     inkscape:window-y="26"
     inkscape:window-maximized="1"
     inkscape:current-layer="layer1" />
  <defs
     id="defs2" />
  <g
     inkscape:label="Layer 1"
     inkscape:groupmode="layer"
     id="layer1">
    <path
       id="rect23787"
       style="fill:#000000;fill-rule:evenodd;stroke-width:0.202033"
       d="M 1.8378906 1.2929688 L 1.8378906 16.113281 L 147.29492 16.113281 L 147.29492 1.2929688 L 1.8378906 1.2929688 z M 34.816406 3.6542969 C 35.093739 4.0382966 35.510224 4.7088493 35.712891 5.1035156 L 35.136719 5.359375 C 34.902052 4.890042 34.561286 4.2940049 34.251953 3.8886719 L 34.816406 3.6542969 z M 65.814453 3.8769531 C 66.475786 3.8769531 67.019531 4.4206984 67.019531 5.0820312 C 67.019531 5.7433641 66.475786 6.2773438 65.814453 6.2773438 C 65.675787 6.2773438 65.536203 6.2555573 65.408203 6.2128906 C 65.408203 6.2448906 65.399339 6.2874115 65.388672 6.3300781 C 65.164672 7.4500773 64.641494 9.1689123 63.798828 10.267578 C 62.828162 11.515577 61.558368 12.507235 59.595703 13.115234 L 58.871094 12.314453 C 60.940426 11.802454 62.145917 10.895239 63.03125 9.7539062 C 63.788583 8.7832403 64.289068 7.301343 64.427734 6.2773438 L 58.976562 6.2773438 C 58.549896 6.2773438 58.187489 6.2979271 57.910156 6.3085938 L 57.910156 5.359375 C 58.208823 5.4020416 58.624563 5.4355469 58.976562 5.4355469 L 64.332031 5.4355469 C 64.428031 5.4355469 64.545828 5.4344948 64.673828 5.4238281 C 64.641828 5.3171615 64.619141 5.1993645 64.619141 5.0820312 C 64.619141 4.4206984 65.15312 3.8769531 65.814453 3.8769531 z M 118.58203 3.9511719 C 118.85936 4.3458382 119.27585 5.0076774 119.47852 5.4023438 L 118.90234 5.6699219 C 118.66768 5.2005889 118.31624 4.6025987 118.01758 4.1972656 L 118.58203 3.9511719 z M 33.644531 4.0800781 C 33.911198 4.4534112 34.304245 5.1036826 34.517578 5.5410156 L 33.943359 5.796875 C 33.730026 5.359542 33.366125 4.7197862 33.078125 4.3144531 L 33.644531 4.0800781 z M 65.814453 4.3671875 C 65.430453 4.3671875 65.111328 4.6873649 65.111328 5.0820312 C 65.111328 5.466031 65.430453 5.7871094 65.814453 5.7871094 C 66.209119 5.7871094 66.529297 5.466031 66.529297 5.0820312 C 66.529297 4.6873649 66.209119 4.3671875 65.814453 4.3671875 z M 117.4082 4.3789062 C 117.67487 4.762906 118.0592 5.4131774 118.2832 5.8398438 L 117.70703 6.1074219 C 117.4937 5.6700889 117.13175 5.030333 116.84375 4.625 L 117.4082 4.3789062 z M 86.347656 4.3886719 L 87.0625 5.0507812 C 86.251834 5.8934473 85.26964 6.7043547 84.181641 7.4296875 L 84.181641 11.931641 C 84.181641 12.336974 84.203427 12.858932 84.246094 13.072266 L 83.201172 13.072266 C 83.233172 12.869599 83.265625 12.336974 83.265625 11.931641 L 83.265625 7.984375 C 82.145626 8.6243745 80.683837 9.2639899 79.201172 9.7226562 L 78.773438 8.890625 C 80.618769 8.389292 82.251548 7.6431505 83.435547 6.8964844 C 84.544879 6.2031516 85.611657 5.2740045 86.347656 4.3886719 z M 111.62695 4.7421875 L 112.61914 4.7421875 C 112.58714 4.9875206 112.56641 5.3068023 112.56641 5.6054688 L 112.56641 8.015625 C 113.82507 7.7062919 115.50981 7.1948434 116.61914 6.7148438 C 116.93914 6.5761772 117.25993 6.4157082 117.55859 6.234375 L 117.93164 7.0878906 C 117.63297 7.2158905 117.24969 7.386573 116.92969 7.5039062 C 115.73502 7.9839059 113.88907 8.5492919 112.56641 8.890625 L 112.56641 11.238281 C 112.56641 11.782281 112.78983 11.920677 113.3125 12.027344 C 113.64317 12.080677 114.19804 12.111328 114.7207 12.111328 C 115.85137 12.111328 117.48381 12.006151 118.36914 11.771484 L 118.36914 12.742188 C 117.44114 12.880854 115.8404 12.964844 114.67773 12.964844 C 114.0484 12.964844 113.40804 12.934042 112.9707 12.859375 C 112.14937 12.710042 111.69141 12.336656 111.69141 11.472656 L 111.69141 5.6054688 C 111.69141 5.3494689 111.66962 4.9875206 111.62695 4.7421875 z M 69.568359 4.8046875 L 70.625 4.8046875 C 70.582333 5.071354 70.550781 5.4660575 70.550781 5.7753906 L 70.550781 11.824219 C 72.588113 11.312219 75.0621 9.904832 76.384766 8.1875 L 76.865234 8.9335938 C 75.478569 10.650926 73.280998 11.974188 70.625 12.742188 C 70.507667 12.774187 70.348401 12.826927 70.177734 12.933594 L 69.558594 12.400391 C 69.63326 12.229724 69.666016 12.090286 69.666016 11.876953 L 69.666016 5.7753906 C 69.666016 5.4980575 69.611026 5.0180207 69.568359 4.8046875 z M 101.35547 4.8046875 L 102.41211 4.8046875 C 102.36944 5.071354 102.33789 5.4660575 102.33789 5.7753906 L 102.33789 11.824219 C 104.37522 11.312219 106.84921 9.904832 108.17188 8.1875 L 108.65234 8.9335938 C 107.26568 10.650926 105.06811 11.974188 102.41211 12.742188 C 102.29478 12.774187 102.13356 12.826927 101.96289 12.933594 L 101.3457 12.400391 C 101.42037 12.229724 101.45117 12.090286 101.45117 11.876953 L 101.45117 5.7753906 C 101.45117 5.4980575 101.39814 5.0180207 101.35547 4.8046875 z M 90.603516 4.8476562 C 90.902182 4.8796562 91.22312 4.9121094 91.564453 4.9121094 L 95.882812 4.9121094 C 96.181479 4.9121094 96.565667 4.8903229 96.875 4.8476562 L 96.875 5.7324219 C 96.565667 5.7110886 96.192146 5.7011719 95.882812 5.7011719 L 91.574219 5.7011719 C 91.222219 5.7011719 90.870182 5.7110886 90.603516 5.7324219 L 90.603516 4.8476562 z M 27.435547 4.9433594 C 27.74488 4.9753594 28.064917 5.0078125 28.40625 5.0078125 L 32.097656 5.0078125 C 32.406989 5.0078125 32.780511 4.986026 33.089844 4.9433594 L 33.089844 5.8300781 C 32.780511 5.8087448 32.406989 5.796875 32.097656 5.796875 L 28.417969 5.796875 C 28.065969 5.796875 27.71288 5.8087448 27.435547 5.8300781 L 27.435547 4.9433594 z M 53.845703 5.1894531 L 54.390625 5.6054688 C 54.326625 5.690802 54.187047 5.9248855 54.123047 6.0742188 C 53.76038 6.9915514 53.089364 8.2392195 52.332031 9.1992188 C 53.45203 10.159218 54.753933 11.546006 55.447266 12.388672 L 54.699219 13.029297 C 53.984553 12.090631 52.853624 10.831994 51.765625 9.8613281 C 50.624293 11.087994 49.184134 12.261896 47.605469 12.976562 L 46.923828 12.261719 C 48.64116 11.589719 50.219694 10.320416 51.318359 9.09375 C 52.043692 8.2724173 52.823177 7.0142389 53.089844 6.1289062 L 48.929688 6.1289062 C 48.556354 6.1289062 47.968896 6.170974 47.851562 6.1816406 L 47.851562 5.2109375 C 48.000896 5.2322708 48.609688 5.2753906 48.929688 5.2753906 L 53.046875 5.2753906 C 53.398875 5.2753906 53.675037 5.2427864 53.845703 5.1894531 z M 42.871094 6.203125 L 43.53125 6.8417969 C 42.997917 7.4284631 42.09176 8.2085578 41.121094 8.8378906 L 41.121094 12.634766 C 41.121094 12.965432 41.131161 13.403552 41.173828 13.574219 L 40.193359 13.574219 C 40.214693 13.403552 40.236328 12.965432 40.236328 12.634766 L 40.236328 9.3710938 C 39.340329 9.8510934 38.101817 10.405964 36.896484 10.779297 L 36.492188 9.9902344 C 37.900186 9.659568 39.468032 8.9122392 40.332031 8.3789062 C 41.345364 7.7602401 42.327094 6.8857912 42.871094 6.203125 z M 89.324219 7.5253906 C 89.622885 7.5573906 89.921287 7.578125 90.251953 7.578125 L 97.238281 7.578125 C 97.462281 7.578125 97.814313 7.5680573 98.070312 7.5253906 L 98.070312 8.4101562 C 97.835646 8.3994896 97.494281 8.3886719 97.238281 8.3886719 L 94.337891 8.3886719 C 94.305891 9.540671 94.133698 10.511449 93.707031 11.300781 C 93.323032 12.015447 92.512135 12.784573 91.605469 13.253906 L 90.816406 12.666016 C 91.648406 12.324683 92.416032 11.707156 92.832031 11.035156 C 93.301364 10.28849 93.419172 9.3913378 93.451172 8.3886719 L 90.251953 8.3886719 C 89.931953 8.3886719 89.622885 8.3888229 89.324219 8.4101562 L 89.324219 7.5253906 z M 26.177734 7.6210938 C 26.465734 7.6530937 26.763084 7.6738281 27.09375 7.6738281 L 34.082031 7.6738281 C 34.306031 7.6738281 34.658063 7.6637604 34.914062 7.6210938 L 34.914062 8.5058594 C 34.679396 8.4951927 34.338031 8.4863281 34.082031 8.4863281 L 31.179688 8.4863281 C 31.147688 9.6383273 30.977448 10.608204 30.550781 11.408203 C 30.166782 12.112203 29.355885 12.880276 28.449219 13.349609 L 27.660156 12.761719 C 28.492156 12.420386 29.259782 11.802859 29.675781 11.130859 C 30.145114 10.39486 30.262922 9.4996607 30.294922 8.4863281 L 27.09375 8.4863281 C 26.77375 8.4863281 26.465734 8.4845261 26.177734 8.5058594 L 26.177734 7.6210938 z "
       transform="scale(0.26458333)" />
  </g>
</svg>
